# xmcd
#
# Track frame offsets:
#	150
#	23339
#	64186
#	88484
#	113220
#	160858
#	194819
#	229852
#
# Disc length: 4161 seconds
#
# Revision: 2
# Processed by: cddbd v1.5.1PL0 Copyright (c) Steve Scherf et al.
# Submitted via: audiograbber 1.83.01
#
DISCID=69103f08
DTITLE=Isaac Hayes - Black Moses (2002 Remastered Reduced Edition)
DYEAR=1971
DGENRE=Soul
TTITLE0=Never Can Say Goodbye
TTITLE1=(They Long To Be) Close To You
TTITLE2=For The Good Times
TTITLE3=Nothing Takes The Place Of You
TTITLE4=Never Gonna Give You Up
TTITLE5=Help Me Love
TTITLE6=Need To Belong To Someone
TTITLE7=Multimediatrack incl. Video, Biography And Pictures
EXTD=24 Bit Remaster ZYX SCD24 8509-2
EXTT0=
EXTT1=
EXTT2=
EXTT3=
EXTT4=
EXTT5=
EXTT6=
EXTT7=
PLAYORDER=
